<svg width="170" height="80" viewBox="0 0 170 80" fill="none" xmlns="http://www.w3.org/2000/svg">
<path d="M81.5058 46.9849C74.6247 46.9854 69.2165 41.5851 69.2178 34.7149C69.219 27.9292 74.6893 22.4773 81.5047 22.4863C88.4479 22.4954 93.877 28.0963 93.8149 34.9594C93.7552 41.5783 88.2708 46.9846 81.5058 46.9849ZM81.4803 27.9518C78.0839 27.854 74.702 30.7997 74.6899 34.7572C74.6787 38.4432 77.7437 41.4672 81.4475 41.5307C84.9953 41.5917 88.3423 38.6183 88.3341 34.759C88.3259 30.8488 84.9812 27.8483 81.4803 27.9518Z" fill="#071231"/>
<path d="M53.8631 46.9849C46.982 46.9854 41.574 41.5851 41.5752 34.7149C41.5764 27.9292 47.0467 22.4773 53.8622 22.4863C60.8054 22.4954 66.2345 28.0963 66.1724 34.9594C66.1125 41.5783 60.6281 46.9846 53.8631 46.9849ZM53.8376 27.9518C50.4412 27.854 47.0593 30.7997 47.0472 34.7572C47.036 38.4432 50.101 41.4672 53.8049 41.5307C57.3528 41.5917 60.6996 38.6183 60.6915 34.759C60.6832 30.8488 57.3385 27.8483 53.8376 27.9518Z" fill="#071231"/>
<path d="M17.3576 34.3334C17.3576 34.0057 17.3576 33.7666 17.3576 33.5277C17.3576 30.3609 17.3575 27.1941 17.358 24.0274C17.358 23.8436 17.3507 23.6586 17.3683 23.4762C17.4124 23.0187 17.5735 22.8224 18.0162 22.8167C19.3922 22.7991 20.7686 22.8087 22.1447 22.8144C22.5169 22.816 22.6964 23.0586 22.759 23.3878C22.7929 23.5661 22.7781 23.7541 22.7781 23.9377C22.779 27.1248 22.7788 30.3121 22.7788 33.4992C22.7788 33.7418 22.7788 33.9846 22.7788 34.2799C26.0197 34.2799 29.2486 34.2799 32.5182 34.2799C32.532 34.0553 32.522 33.8204 32.5223 33.5854C32.525 30.3981 32.5241 27.211 32.5244 24.0238C32.5244 23.8399 32.515 23.6549 32.5315 23.4724C32.5723 23.0212 32.7384 22.8225 33.1839 22.8163C34.5393 22.798 35.8953 22.8052 37.2511 22.8119C37.6438 22.814 37.8496 23.039 37.8805 23.423C37.8904 23.545 37.8927 23.6679 37.8932 23.7904C37.8618 45.7868 37.8618 45.7868 37.8618 45.7868C37.8529 46.4417 37.6816 46.6116 37.0131 46.6151C35.8217 46.6211 34.6302 46.62 33.4388 46.6154C32.7222 46.6127 32.5289 46.424 32.5266 45.7039C32.5205 43.8243 32.5244 41.9446 32.5242 40.065C32.5242 39.8449 32.5242 39.625 32.5242 39.3552C29.246 39.3552 25.9984 39.3552 22.7265 39.3552C22.7137 39.5893 22.7291 39.8067 22.7287 40.0236C22.726 41.8828 22.7291 43.7421 22.7261 45.6013C22.7249 46.4429 22.5591 46.6114 21.723 46.6154C20.6137 46.6206 19.5044 46.6206 18.3951 46.6155C17.5464 46.6116 17.3603 46.4211 17.3586 45.5534C17.3551 43.735 17.3575 41.9167 17.3575 40.0982C17.3575 39.8755 17.3575 39.6158 17.3575 39.3177C17.1029 39.2997 16.8879 39.3085 16.6731 39.3077C15.4816 39.3032 14.2901 39.3111 13.0987 39.3034C12.1839 39.2975 11.9386 38.9261 12.3069 38.1117C12.7781 37.0704 13.2743 36.04 13.7281 34.9912C13.9365 34.5095 14.2566 34.3134 14.7753 34.3274C15.5947 34.3498 16.4153 34.3334 17.3576 34.3334Z" fill="#071231"/>
<path d="M103.298 38.0798C103.298 38.4286 103.298 38.6498 103.298 38.8714C103.298 41.1178 103.299 43.3646 103.297 45.6112C103.297 46.4816 103.142 46.6314 102.251 46.633C101.162 46.6348 100.074 46.6353 98.9857 46.6327C98.1505 46.6306 98.0059 46.4948 98.0019 45.6808C97.996 44.5167 98.0001 43.3527 98.0001 42.1884C98.0001 36.1636 98.0001 30.139 98.0003 24.1141C98.0003 23.9506 97.9953 23.7871 98.0021 23.624C98.0266 23.0319 98.1981 22.841 98.7794 22.8403C101.633 22.8367 104.489 22.7909 107.342 22.8609C110.927 22.9488 113.989 25.869 114.452 29.4082C114.95 33.2098 112.426 37.0818 108.347 37.8276C107.027 38.0691 105.651 38.0074 104.3 38.0772C103.997 38.093 103.693 38.0798 103.298 38.0798ZM103.357 33.0245C104.577 33.0245 105.746 33.0702 106.909 33.0123C108.21 32.9475 109.306 31.7319 109.334 30.4293C109.36 29.2335 108.397 27.9898 107.186 27.889C105.929 27.7844 104.657 27.8658 103.357 27.8658C103.357 29.5789 103.357 31.2631 103.357 33.0245Z" fill="#071231"/>
<path d="M123.297 41.6161C124.519 41.6161 125.647 41.6161 126.774 41.6161C128.459 41.6161 130.143 41.6135 131.827 41.6171C132.781 41.6191 133.052 42.0343 132.655 42.8968C132.169 43.9537 131.665 45.0031 131.182 46.0613C130.999 46.4594 130.729 46.6411 130.273 46.6399C126.432 46.6286 122.592 46.636 118.75 46.6312C118.073 46.6302 117.9 46.4235 117.9 45.6657C117.898 40.3746 117.899 35.0831 117.899 29.7921C117.899 27.7901 117.898 25.7881 117.899 23.7862C117.9 22.9409 118.087 22.7578 118.956 22.7556C120.065 22.7526 121.174 22.7513 122.283 22.7561C123.088 22.7596 123.296 22.9701 123.297 23.7794C123.298 29.4587 123.297 35.1382 123.297 40.8172C123.297 41.0575 123.297 41.2984 123.297 41.6161Z" fill="#071231"/>
<path d="M36.609 55.8975C36.609 56.1213 36.609 56.3019 36.609 56.5273C30.0461 56.5273 23.492 56.5273 16.9033 56.5273C16.9033 56.3184 16.9033 56.1255 16.9033 55.8975C23.4635 55.8975 30.0022 55.8975 36.609 55.8975Z" fill="#071231"/>
<path d="M157.394 45.9757C157.358 45.8389 157.297 45.7073 157.237 45.5782C153.763 38.1393 150.287 30.7016 146.817 23.2608C146.629 22.8578 146.407 22.5903 145.903 22.5958C145.426 22.6008 145.212 22.8547 145.035 23.2337C141.546 30.7103 138.051 38.1847 134.56 45.6608C134.218 46.3933 134.44 46.7323 135.265 46.7378L138.56 46.7573C138.568 46.7574 138.576 46.7575 138.584 46.7575L138.632 46.7578L138.632 46.7559C139.408 46.7388 139.868 46.3771 140.205 45.6148C141.965 41.6369 145.902 33.0674 145.902 33.0674C145.902 33.0674 148.875 39.5423 150.194 42.4424C150.735 43.6321 151.278 44.8208 151.825 46.0081C152.004 46.3979 152.267 46.7248 152.735 46.7306C154.112 46.7476 155.489 46.7524 156.866 46.7357C157.308 46.7307 157.509 46.4079 157.394 45.9757Z" fill="#071231"/>
<path d="M157.416 55.8975C150.929 55.8975 144.1 55.8975 137.679 55.8975C137.679 56.1253 137.679 56.3038 137.679 56.5094C144.164 56.5094 150.955 56.5094 157.416 56.5094V55.8975Z" fill="#071231"/>
<path d="M51.9468 53.6704C52.534 53.6704 52.9862 53.7973 53.3036 54.0512C53.6263 54.3051 53.7876 54.6569 53.7876 55.1065C53.7876 55.4345 53.703 55.7069 53.5337 55.9238C53.3644 56.1354 53.1185 56.2835 52.7958 56.3681C53.6104 56.5215 54.0177 56.9632 54.0177 57.6932C54.0177 58.1693 53.8432 58.5449 53.494 58.8199C53.1502 59.0897 52.653 59.2246 52.0023 59.2246H49.979V53.6704H51.9468ZM50.6693 56.0825H51.9785C52.3329 56.0825 52.608 56.0032 52.8037 55.8445C52.9995 55.6858 53.0973 55.4662 53.0973 55.1859C53.0973 54.9055 52.9995 54.6887 52.8037 54.5352C52.6133 54.3766 52.3382 54.2972 51.9785 54.2972H50.6693V56.0825ZM50.6693 58.5978H52.0023C52.4255 58.5978 52.7482 58.5158 52.9704 58.3518C53.1978 58.1878 53.3115 57.9604 53.3115 57.6694C53.3115 57.3573 53.1978 57.1193 52.9704 56.9553C52.7429 56.786 52.4202 56.7014 52.0023 56.7014H50.6693V58.5978ZM56.2674 53.6624H57.0767L58.7112 56.4237L60.3696 53.6624H61.1472L59.0524 57.1695V59.2246H58.3621V57.1695L56.2674 53.6624ZM70.5618 53.6704C70.9268 53.6704 71.2495 53.7418 71.5299 53.8846C71.8102 54.0221 72.0271 54.2205 72.1805 54.4797C72.3339 54.7336 72.4106 55.0325 72.4106 55.3763C72.4106 55.7625 72.3022 56.0984 72.0853 56.384C71.8737 56.6644 71.5881 56.8548 71.2283 56.9553L72.4741 59.2246H71.6965L70.546 57.0902H69.1257V59.2246H68.4354V53.6704H70.5618ZM69.1257 56.4554H70.5063C70.8713 56.4554 71.1622 56.3576 71.3791 56.1618C71.596 55.9661 71.7044 55.7043 71.7044 55.3763C71.7044 55.0536 71.596 54.7944 71.3791 54.5987C71.1622 54.403 70.8739 54.3051 70.5142 54.3051H69.1257V56.4554ZM75.0263 59.2246L77.1448 53.6704H77.9621L80.0727 59.2246H79.3348L78.7476 57.725H76.3276L75.7404 59.2246H75.0263ZM76.5339 57.0981H78.5413L77.5336 54.4242L76.5339 57.0981ZM81.6585 53.6624H82.4678L84.1023 56.4237L85.7607 53.6624H86.5383L84.4435 57.1695V59.2246H83.7532V57.1695L81.6585 53.6624ZM89.4488 53.6704H91.0912C91.6625 53.6704 92.1571 53.7868 92.575 54.0195C92.9982 54.247 93.3209 54.5696 93.543 54.9875C93.7705 55.4054 93.8842 55.8921 93.8842 56.4475C93.8842 56.9976 93.7705 57.4843 93.543 57.9075C93.3209 58.3254 92.9982 58.6507 92.575 58.8834C92.1571 59.1109 91.6625 59.2246 91.0912 59.2246H89.4488V53.6704ZM91.0912 58.5898C91.7525 58.5898 92.2656 58.3968 92.6306 58.0106C92.9956 57.6245 93.178 57.1034 93.178 56.4475C93.178 55.7863 92.9956 55.2652 92.6306 54.8844C92.2709 54.4982 91.7577 54.3051 91.0912 54.3051H90.1391V58.5898H91.0912ZM97.0576 53.6704H97.748V59.2246H97.0576V53.6704ZM100.673 59.2246L102.792 53.6704H103.609L105.72 59.2246H104.982L104.394 57.725H101.974L101.387 59.2246H100.673ZM102.181 57.0981H104.188L103.18 54.4242L102.181 57.0981ZM108.649 59.2246V53.6704H109.284L112.267 57.9551V53.6704H112.942V59.2246H112.307L109.323 54.9399V59.2246H108.649ZM115.979 53.6704H120.271V54.3051H118.47V59.2246H117.78V54.3051H115.979V53.6704Z" fill="#071231"/>
</svg>
