<svg width="24" height="24" viewBox="0 0 24 24" fill="none" xmlns="http://www.w3.org/2000/svg">
<path d="M17.3896 1.75977L16.3096 2.83977" stroke="#071231" stroke-width="1.5" stroke-linecap="round" stroke-linejoin="round"/>
<path d="M8.30957 1.75977L9.30957 2.75977" stroke="#071231" stroke-width="1.5" stroke-linecap="round" stroke-linejoin="round"/>
<path d="M12.8496 1V2.41" stroke="#071231" stroke-width="1.5" stroke-linecap="round" stroke-linejoin="round"/>
<path d="M14.582 22.5452C16.691 22.7992 18.89 22.1232 20.508 20.5042V20.5042C22.202 18.8102 22.937 16.3812 22.468 14.0322L21.226 7.8242C21.081 7.0982 20.443 6.5752 19.702 6.5752V6.5752C18.844 6.5752 18.148 7.2712 18.148 8.1292V9.6122" stroke="#071231" stroke-width="1.5" stroke-linecap="round" stroke-linejoin="round"/>
<path d="M15.3697 8.03924L13.5517 6.22124C12.9657 5.63524 12.0157 5.63524 11.4307 6.22124V6.22124C10.8447 6.80724 10.8447 7.75724 11.4307 8.34224" stroke="#071231" stroke-width="1.5" stroke-linecap="round" stroke-linejoin="round"/>
<path d="M6.78208 7.93696C6.19608 7.35096 6.19608 6.40096 6.78208 5.81596V5.81596C7.36808 5.22996 8.31808 5.22996 8.90308 5.81596L12.7921 9.70496L14.9131 11.826V9.13696C14.9131 8.27896 15.6091 7.58296 16.4671 7.58296V7.58296C17.2081 7.58296 17.8461 8.10596 17.9911 8.83196L19.1101 14.429C19.5801 16.778 18.8451 19.207 17.1501 20.901V20.901C14.3521 23.699 9.81508 23.699 7.01708 20.901L4.30708 18.19L1.83208 15.715C1.24608 15.129 1.24608 14.179 1.83208 13.594V13.594C2.41808 13.008 3.36808 13.008 3.95308 13.594" stroke="#071231" stroke-width="1.5" stroke-linecap="round" stroke-linejoin="round"/>
<path d="M7.13609 16.7761L2.54009 12.1801C1.95409 11.5941 1.95409 10.6441 2.54009 10.0591V10.0591C3.12609 9.47313 4.07609 9.47313 4.66109 10.0591" stroke="#071231" stroke-width="1.5" stroke-linecap="round" stroke-linejoin="round"/>
<path d="M9.25712 14.654L3.24712 8.644C2.66112 8.058 2.66112 7.108 3.24712 6.523V6.523C3.83312 5.937 4.78312 5.937 5.36812 6.523L11.3781 12.533" stroke="#071231" stroke-width="1.5" stroke-linecap="round" stroke-linejoin="round"/>
</svg>
