<svg width="24" height="24" viewBox="0 0 24 24" fill="none" xmlns="http://www.w3.org/2000/svg">
<path d="M5.8252 5.49012C5.8222 5.49012 5.8202 5.49212 5.8202 5.49512C5.8202 5.49812 5.8222 5.50012 5.8252 5.50012C5.8282 5.50012 5.8302 5.49812 5.8302 5.49512C5.8302 5.49212 5.8282 5.49012 5.8252 5.49012" stroke="#071231" stroke-width="1.5" stroke-linecap="round" stroke-linejoin="round"/>
<path d="M8.36816 5.49012C8.36516 5.49012 8.36316 5.49212 8.36316 5.49512C8.36316 5.49812 8.36616 5.50012 8.36816 5.50012C8.37116 5.50012 8.37316 5.49812 8.37316 5.49512C8.37316 5.49212 8.37116 5.49012 8.36816 5.49012" stroke="#071231" stroke-width="1.5" stroke-linecap="round" stroke-linejoin="round"/>
<path d="M10.9072 5.49012C10.9042 5.49012 10.9022 5.49212 10.9022 5.49512C10.9022 5.49812 10.9042 5.50012 10.9072 5.50012C10.9102 5.50012 10.9122 5.49812 10.9122 5.49512C10.9122 5.49212 10.9102 5.49012 10.9072 5.49012" stroke="#071231" stroke-width="1.5" stroke-linecap="round" stroke-linejoin="round"/>
<path fill-rule="evenodd" clip-rule="evenodd" d="M15 16H5C3.895 16 3 15.105 3 14V5C3 3.895 3.895 3 5 3H15C16.105 3 17 3.895 17 5V14C17 15.105 16.105 16 15 16Z" stroke="#071231" stroke-width="1.5" stroke-linecap="round" stroke-linejoin="round"/>
<path d="M3 8H19C20.105 8 21 8.895 21 10V19C21 20.105 20.105 21 19 21H9C7.895 21 7 20.105 7 19V16" stroke="#071231" stroke-width="1.5" stroke-linecap="round" stroke-linejoin="round"/>
</svg>
