<svg width="24" height="24" viewBox="0 0 24 24" fill="none" xmlns="http://www.w3.org/2000/svg">
<path d="M16 19.5H18" stroke="#071231" stroke-width="1.5" stroke-linecap="round" stroke-linejoin="round"/>
<path fill-rule="evenodd" clip-rule="evenodd" d="M19 22H15C13.895 22 13 21.105 13 20V13C13 11.895 13.895 11 15 11H19C20.105 11 21 11.895 21 13V20C21 21.105 20.105 22 19 22Z" stroke="#071231" stroke-width="1.5" stroke-linecap="round" stroke-linejoin="round"/>
<path d="M9 21H4.714C3.768 21 3 20.232 3 19.286V15" stroke="#071231" stroke-width="1.5" stroke-linecap="round" stroke-linejoin="round"/>
<path d="M16 3H19.286C20.232 3 21 3.768 21 4.714V8" stroke="#071231" stroke-width="1.5" stroke-linecap="round" stroke-linejoin="round"/>
<path fill-rule="evenodd" clip-rule="evenodd" d="M4.162 4.035C2.943 4.201 2 5.235 2 6.5C2 7.88 3.12 9 4.5 9H9.999C11.104 9 11.999 8.105 11.999 7C11.999 5.895 11.104 5 9.999 5C9.999 3.343 8.656 2 6.999 2C5.682 2 4.564 2.852 4.162 4.035Z" stroke="#071231" stroke-width="1.5" stroke-linecap="round" stroke-linejoin="round"/>
</svg>
