<svg width="24" height="24" viewBox="0 0 24 24" fill="none" xmlns="http://www.w3.org/2000/svg">
<path fill-rule="evenodd" clip-rule="evenodd" d="M12.0001 6.3501C9.31115 9.1411 9.31115 13.6421 12.0001 16.4331C14.6891 13.6431 14.6891 9.1411 12.0001 6.3501Z" stroke="#071231" stroke-width="1.5" stroke-linecap="round" stroke-linejoin="round"/>
<path fill-rule="evenodd" clip-rule="evenodd" d="M12 6.3501C9.20901 6.3501 6.95801 8.6011 6.95801 11.3921C6.95801 14.1831 9.20901 16.4341 12 16.4341C14.791 16.4341 17.042 14.1831 17.042 11.3921C17.042 8.6011 14.791 6.3501 12 6.3501V6.3501Z" stroke="#071231" stroke-width="1.5" stroke-linecap="round" stroke-linejoin="round"/>
<path d="M6.95996 11.3921H17.04" stroke="#071231" stroke-width="1.5" stroke-linecap="round" stroke-linejoin="round"/>
<path fill-rule="evenodd" clip-rule="evenodd" d="M20 11.2122C20 15.5802 16.843 19.7052 12.52 20.9282C12.182 21.0242 11.818 21.0242 11.48 20.9282C7.157 19.7052 4 15.5802 4 11.2122V7.21424C4 6.40224 4.491 5.67024 5.243 5.36324L10.107 3.37324C11.321 2.87624 12.681 2.87624 13.894 3.37324L18.758 5.36324C19.509 5.67024 20 6.40224 20 7.21424V11.2122Z" stroke="#071231" stroke-width="1.5" stroke-linecap="round" stroke-linejoin="round"/>
</svg>
